<svg width="20" height="20" viewBox="0 0 20 20" xmlns="http://www.w3.org/2000/svg"><path d="M10 1.333a8.667 8.667 0 1 0 0 17.334 8.667 8.667 0 0 0 0-17.334zM0 10C0 4.477 4.477 0 10 0s10 4.477 10 10-4.477 10-10 10S0 15.523 0 10z"/><path d="M10 4c.368 0 .667.298.667.667v.666a.667.667 0 0 1-1.334 0v-.666c0-.369.299-.667.667-.667zM7.333 7.333c0-.368.299-.666.667-.666h2a.667.667 0 0 1 .578 1 .67.67 0 0 1 .089.333v5.333H12a.667.667 0 0 1 0 1.334H8a.667.667 0 0 1 0-1.334h1.333V8H8a.667.667 0 0 1-.667-.667z"/></svg>