<svg width="14" height="16" viewBox="0 0 14 16" fill="none" xmlns="http://www.w3.org/2000/svg"><path d="M7.034 3.519a.825.825 0 0 1-.816-.83c0-.462.368-.832.816-.832.455 0 .82.37.82.831 0 .458-.366.83-.82.83zm6.617 7.274l-.437-2.759a.555.555 0 0 0-.537-.454.554.554 0 0 0-.408.181l-2.01 1.913a.6.6 0 0 0 .029.929c.048.037.102.062.156.084l.505.17a4.22 4.22 0 0 1-3.135 2.748l.003-9.055a2.02 2.02 0 0 0 1.21-1.862c0-1.118-.89-2.022-1.994-2.022-1.098 0-1.992.904-1.992 2.023 0 .833.512 1.552 1.224 1.86l.003 9.07a4.244 4.244 0 0 1-3.224-2.762l.508-.17a.705.705 0 0 0 .158-.084.596.596 0 0 0 .029-.929L1.727 7.761a.544.544 0 0 0-.404-.181.553.553 0 0 0-.541.454l-.436 2.759a.612.612 0 0 0-.014.138.587.587 0 0 0 .755.566l.473-.156c.751 2.316 2.902 3.992 5.438 3.992 2.537 0 4.689-1.677 5.44-3.996l.472.159a.587.587 0 0 0 .756-.566.624.624 0 0 0-.015-.137z"/></svg>
