<svg width="20" height="20" viewBox="0 0 20 20" xmlns="http://www.w3.org/2000/svg"><path d="M4.862 4.862c.26-.26.682-.26.943 0l9.333 9.333a.667.667 0 0 1-.943.943L4.862 5.805a.667.667 0 0 1 0-.943zm10.276 0c.26.26.26.682 0 .943L12.471 8.47a.667.667 0 1 1-.942-.942l2.666-2.667c.26-.26.683-.26.943 0zm-6.667 6.667c.26.26.26.682 0 .942l-2.666 2.667a.667.667 0 0 1-.943-.943l2.667-2.666c.26-.26.682-.26.942 0z"/><path d="M10 20C4.477 20 0 15.523 0 10S4.477 0 10 0s10 4.477 10 10-4.477 10-10 10zm0-1.333a8.667 8.667 0 1 0 0-17.334 8.667 8.667 0 0 0 0 17.334z"/></svg>