<svg width="14" height="14" viewBox="0 0 14 14" xmlns="http://www.w3.org/2000/svg"><g fill-rule="evenodd"><path d="M2.545 9.74c0-.337.285-.61.637-.61h1.273c.351 0 .636.273.636.61v1.216a.623.623 0 0 1-.636.61H3.182a.623.623 0 0 1-.637-.61V9.74zM7 9.13a.623.623 0 0 0-.636.61v1.216c0 .337.285.61.636.61h1.273a.623.623 0 0 0 .636-.61V9.74a.623.623 0 0 0-.636-.609H7V9.13z"/><path d="M4.455.609A.623.623 0 0 0 3.818 0a.623.623 0 0 0-.636.609v.608H.636a.623.623 0 0 0-.636.61V13.39c0 .337.285.609.636.609h12.728A.623.623 0 0 0 14 13.39V1.826a.623.623 0 0 0-.636-.609h-2.546V.61a.623.623 0 0 0-.636-.61.623.623 0 0 0-.637.609v.608h-5.09V.609zM3.182 2.435v.608c0 .337.285.61.636.61a.623.623 0 0 0 .637-.61v-.608h5.09v.608c0 .337.285.61.637.61a.623.623 0 0 0 .636-.61v-.608h1.91V4.26H1.272V2.435h1.91zm-1.91 3.043v7.305h11.455V5.478H1.272z"/></g></svg>
